<svg width="762" height="387" viewBox="0 0 762 387" fill="none" xmlns="http://www.w3.org/2000/svg">
<path fill-rule="evenodd" clip-rule="evenodd" d="M669 24C669 10.7452 658.255 0 645 0H24C10.7452 0 0 10.7452 0 24V118V123V211V299V363C0 376.255 10.7452 387 24 387H481C494.255 387 505 376.255 505 363V323C505 309.745 515.745 299 529 299H550C563.255 299 574 288.255 574 275V235C574 221.745 584.745 211 598 211H738C751.255 211 762 200.255 762 187V142C762 128.745 751.255 118 738 118H693C679.745 118 669 107.255 669 94V24Z" fill="white"/>
</svg>
