<svg width="120" height="233" viewBox="0 0 120 233" fill="none" xmlns="http://www.w3.org/2000/svg">
<path d="M118.708 212.874C118.708 215.439 117.189 217.958 114.27 220.319C111.356 222.676 107.108 224.821 101.815 226.632C91.2336 230.252 76.5832 232.5 60.3774 232.5C44.1717 232.5 29.5213 230.252 18.9398 226.632C13.6466 224.821 9.39889 222.676 6.48451 220.319C3.56586 217.958 2.04688 215.439 2.04688 212.874C2.04688 210.308 3.56586 207.789 6.48451 205.429C9.39889 203.071 13.6466 200.926 18.9398 199.115C29.5213 195.495 44.1717 193.248 60.3774 193.248C76.5832 193.248 91.2336 195.495 101.815 199.115C107.108 200.926 111.356 203.071 114.27 205.429C117.189 207.789 118.708 210.308 118.708 212.874Z" fill="#DBE0E4" stroke="black"/>
<path d="M117.935 188.103C117.935 190.668 116.416 193.187 113.497 195.548C110.583 197.905 106.335 200.05 101.042 201.861C90.4602 205.481 75.8097 207.729 59.604 207.729C43.3983 207.729 28.7479 205.481 18.1664 201.861C12.8732 200.05 8.62546 197.905 5.71107 195.548C2.79243 193.187 1.27344 190.668 1.27344 188.103C1.27344 185.537 2.79243 183.018 5.71107 180.658C8.62546 178.3 12.8732 176.155 18.1664 174.344C28.7479 170.724 43.3983 168.477 59.604 168.477C75.8097 168.477 90.4602 170.724 101.042 174.344C106.335 176.155 110.583 178.3 113.497 180.658C116.416 183.018 117.935 185.537 117.935 188.103Z" fill="#DBE0E4" stroke="black"/>
<path d="M117.935 164.106C117.935 166.672 116.416 169.191 113.497 171.552C110.583 173.909 106.335 176.054 101.042 177.865C90.4602 181.485 75.8097 183.732 59.604 183.732C43.3983 183.732 28.7479 181.485 18.1664 177.865C12.8732 176.054 8.62546 173.909 5.71107 171.552C2.79243 169.191 1.27344 166.672 1.27344 164.106C1.27344 161.541 2.79243 159.022 5.71107 156.661C8.62546 154.304 12.8732 152.159 18.1664 150.348C28.7479 146.728 43.3983 144.48 59.604 144.48C75.8097 144.48 90.4602 146.728 101.042 150.348C106.335 152.159 110.583 154.304 113.497 156.661C116.416 159.022 117.935 161.541 117.935 164.106Z" fill="#DBE0E4" stroke="black"/>
<path d="M118.708 141.658C118.708 144.224 117.189 146.743 114.27 149.103C111.356 151.461 107.108 153.605 101.815 155.416C91.2336 159.036 76.5832 161.284 60.3774 161.284C44.1717 161.284 29.5213 159.036 18.9398 155.416C13.6466 153.605 9.39889 151.461 6.48451 149.103C3.56586 146.743 2.04688 144.224 2.04688 141.658C2.04688 139.092 3.56586 136.573 6.48451 134.213C9.39889 131.855 13.6466 129.71 18.9398 127.9C29.5213 124.28 44.1717 122.032 60.3774 122.032C76.5832 122.032 91.2336 124.28 101.815 127.9C107.108 129.71 111.356 131.855 114.27 134.213C117.189 136.573 118.708 139.092 118.708 141.658Z" fill="#DBE0E4" stroke="black"/>
<path d="M117.935 116.887C117.935 119.453 116.416 121.972 113.497 124.332C110.583 126.69 106.335 128.834 101.042 130.645C90.4602 134.265 75.8097 136.513 59.604 136.513C43.3983 136.513 28.7479 134.265 18.1664 130.645C12.8732 128.834 8.62546 126.69 5.71107 124.332C2.79243 121.972 1.27344 119.453 1.27344 116.887C1.27344 114.321 2.79243 111.802 5.71107 109.442C8.62546 107.084 12.8732 104.939 18.1664 103.129C28.7479 99.5087 43.3983 97.2607 59.604 97.2607C75.8097 97.2607 90.4602 99.5087 101.042 103.129C106.335 104.939 110.583 107.084 113.497 109.442C116.416 111.802 117.935 114.321 117.935 116.887Z" fill="#DBE0E4" stroke="black"/>
<path d="M117.935 93.6643C117.935 96.2299 116.416 98.7489 113.497 101.11C110.583 103.467 106.335 105.612 101.042 107.423C90.4602 111.043 75.8097 113.291 59.604 113.291C43.3983 113.291 28.7479 111.043 18.1664 107.423C12.8732 105.612 8.62546 103.467 5.71107 101.11C2.79243 98.7489 1.27344 96.2299 1.27344 93.6643C1.27344 91.0988 2.79243 88.5797 5.71107 86.219C8.62546 83.8618 12.8732 81.7168 18.1664 79.906C28.7479 76.286 43.3983 74.0381 59.604 74.0381C75.8097 74.0381 90.4602 76.286 101.042 79.906C106.335 81.7168 110.583 83.8618 113.497 86.219C116.416 88.5797 117.935 91.0988 117.935 93.6643Z" fill="#DBE0E4" stroke="black"/>
<path d="M117.935 68.8938C117.935 71.4594 116.416 73.9784 113.497 76.3391C110.583 78.6963 106.335 80.8413 101.042 82.6521C90.4602 86.2721 75.8097 88.5201 59.604 88.5201C43.3983 88.5201 28.7479 86.2721 18.1664 82.6521C12.8732 80.8413 8.62546 78.6963 5.71107 76.3391C2.79243 73.9784 1.27344 71.4594 1.27344 68.8938C1.27344 66.3283 2.79243 63.8092 5.71107 61.4485C8.62546 59.0913 12.8732 56.9463 18.1664 55.1355C28.7479 51.5155 43.3983 49.2676 59.604 49.2676C75.8097 49.2676 90.4602 51.5155 101.042 55.1355C106.335 56.9463 110.583 59.0913 113.497 61.4485C116.416 63.8092 117.935 66.3283 117.935 68.8938Z" fill="#DBE0E4" stroke="black"/>
<path d="M117.161 44.1228C117.161 46.6884 115.642 49.2074 112.724 51.5681C109.809 53.9254 105.561 56.0703 100.268 57.8811C89.6867 61.5011 75.0363 63.7491 58.8306 63.7491C42.6248 63.7491 27.9744 61.5011 17.3929 57.8811C12.0997 56.0703 7.85202 53.9254 4.93763 51.5681C2.01899 49.2074 0.5 46.6884 0.5 44.1228C0.5 41.5573 2.01899 39.0382 4.93763 36.6775C7.85202 34.3203 12.0997 32.1753 17.3929 30.3645C27.9744 26.7445 42.6248 24.4966 58.8306 24.4966C75.0363 24.4966 89.6867 26.7445 100.268 30.3645C105.561 32.1753 109.809 34.3203 112.724 36.6775C115.642 39.0382 117.161 41.5573 117.161 44.1228Z" fill="#DBE0E4" stroke="black"/>
<path d="M117.161 20.1262C117.161 22.6918 115.642 25.2109 112.724 27.5715C109.809 29.9288 105.561 32.0737 100.268 33.8846C89.6867 37.5046 75.0363 39.7525 58.8306 39.7525C42.6248 39.7525 27.9744 37.5046 17.3929 33.8846C12.0997 32.0737 7.85202 29.9288 4.93763 27.5715C2.01899 25.2109 0.5 22.6918 0.5 20.1262C0.5 17.5607 2.01899 15.0416 4.93763 12.681C7.85202 10.3237 12.0997 8.17876 17.3929 6.36792C27.9744 2.74794 42.6248 0.5 58.8306 0.5C75.0363 0.5 89.6867 2.74794 100.268 6.36792C105.561 8.17876 109.809 10.3237 112.724 12.681C115.642 15.0416 117.161 17.5607 117.161 20.1262Z" fill="white" stroke="black"/>
</svg>
