<svg width="24" height="24" viewBox="0 0 24 24" fill="none" xmlns="http://www.w3.org/2000/svg">
<path d="M6.0039 17C6.0039 16.45 6.4539 16 7.0039 16H14.5939L5.7139 7.12C5.62131 7.02742 5.54787 6.91751 5.49777 6.79654C5.44766 6.67558 5.42188 6.54593 5.42188 6.415C5.42187 6.28407 5.44766 6.15442 5.49777 6.03346C5.54787 5.91249 5.62131 5.80258 5.7139 5.71C5.80648 5.61742 5.91639 5.54398 6.03735 5.49387C6.15832 5.44377 6.28797 5.41798 6.4189 5.41798C6.54983 5.41798 6.67947 5.44377 6.80044 5.49387C6.9214 5.54398 7.03131 5.61742 7.1239 5.71L16.0039 14.59V7C16.0039 6.45 16.4539 6 17.0039 6C17.5539 6 18.0039 6.45 18.0039 7V17C18.0039 17.55 17.5539 18 17.0039 18H7.0039C6.4539 18 6.0039 17.55 6.0039 17Z" fill="black"/>
</svg>
