<svg width="42" height="42" viewBox="0 0 42 42" fill="none" xmlns="http://www.w3.org/2000/svg">
<rect width="42" height="42" rx="12" fill="white"/>
<path d="M24.4615 22.3846C24.2779 22.3846 24.1018 22.4576 23.972 22.5874C23.8422 22.7172 23.7692 22.8933 23.7692 23.0769C23.7692 23.2605 23.8422 23.4366 23.972 23.5665C24.1018 23.6963 24.2779 23.7692 24.4615 23.7692H26.5385C26.7221 23.7692 26.8982 23.6963 27.028 23.5665C27.1578 23.4366 27.2308 23.2605 27.2308 23.0769C27.2308 22.8933 27.1578 22.7172 27.028 22.5874C26.8982 22.4576 26.7221 22.3846 26.5385 22.3846H24.4615ZM12 14.0769C12 13.5261 12.2188 12.9978 12.6083 12.6083C12.9978 12.2188 13.5261 12 14.0769 12H25.6731C26.2698 12 26.8421 12.2371 27.2641 12.659C27.686 13.081 27.9231 13.6533 27.9231 14.25V14.9465C29.1332 15.3743 30 16.5284 30 17.8846V26.8846C30 27.7109 29.6718 28.5033 29.0875 29.0875C28.5033 29.6718 27.7109 30 26.8846 30H15.1154C14.2891 30 13.4967 29.6718 12.9125 29.0875C12.3282 28.5033 12 27.7109 12 26.8846V14.25H12.0069C12.0022 14.1924 11.9999 14.1347 12 14.0769ZM26.8846 16.1538H13.3846V26.8846C13.3846 27.3436 13.567 27.7839 13.8915 28.1085C14.2161 28.433 14.6564 28.6154 15.1154 28.6154H26.8846C27.3436 28.6154 27.7839 28.433 28.1085 28.1085C28.433 27.7839 28.6154 27.3436 28.6154 26.8846V17.8846C28.6154 17.4256 28.433 16.9854 28.1085 16.6608C27.7839 16.3362 27.3436 16.1538 26.8846 16.1538ZM26.5385 14.25C26.5385 13.7723 26.1508 13.3846 25.6731 13.3846H14.0769C13.8933 13.3846 13.7172 13.4576 13.5874 13.5874C13.4576 13.7172 13.3846 13.8933 13.3846 14.0769C13.3846 14.2605 13.4576 14.4366 13.5874 14.5665C13.7172 14.6963 13.8933 14.7692 14.0769 14.7692H26.5385V14.25Z" fill="#759191"/>
</svg>
