<svg width="160" height="40" viewBox="0 0 160 40" fill="none" xmlns="http://www.w3.org/2000/svg">
<path fill-rule="evenodd" clip-rule="evenodd" d="M159.969 12.5C159.969 5.87258 154.596 0.5 147.969 0.5H22.5188C17.5956 0.5 13.6045 4.49106 13.6045 9.41428V12.0107C13.6045 15.5 10.7759 18.3286 7.28663 18.3286H3.19732C1.96651 18.3286 0.96875 19.3263 0.96875 20.5571C0.96875 21.7879 1.96651 22.7857 3.19732 22.7857H7.28663C10.7759 22.7857 13.6045 25.6143 13.6045 29.1036V31.1429C13.6045 35.7584 17.3461 39.5 21.9617 39.5H147.969C154.596 39.5 159.969 34.1274 159.969 27.5V12.5Z" fill="white"/>
<path d="M49.7528 16.632C48.3288 16.632 47.4808 17.368 47.0008 18.152H46.9688V13.56H45.9288V25H46.9688V23.608H47.0008C47.4808 24.488 48.3288 25.192 49.7528 25.192C51.7528 25.192 53.3528 23.592 53.3528 20.92C53.3528 18.232 51.7528 16.632 49.7528 16.632ZM49.6408 24.28C48.0728 24.28 46.9688 22.968 46.9688 20.92C46.9688 18.856 48.0728 17.528 49.6408 17.528C51.3368 17.528 52.2648 19.08 52.2648 20.92C52.2648 22.744 51.3368 24.28 49.6408 24.28ZM57.075 25.208C58.403 25.208 59.379 24.696 59.939 23.768H59.971C60.035 24.792 60.435 25.064 61.123 25.064C61.315 25.064 61.491 25.032 61.667 25V24.248C61.571 24.264 61.507 24.264 61.443 24.264C61.075 24.264 60.979 23.96 60.979 23.304V19.224C60.979 17.272 59.651 16.632 58.147 16.632C55.779 16.632 54.867 17.864 54.787 19.304H55.891C55.971 18.104 56.531 17.544 58.115 17.544C59.427 17.544 59.971 18.104 59.971 18.936C59.971 19.912 59.107 20.008 57.763 20.248C55.651 20.616 54.403 21.176 54.403 22.936C54.403 24.296 55.443 25.208 57.075 25.208ZM57.203 24.296C56.019 24.296 55.491 23.784 55.491 22.84C55.491 21.8 56.307 21.4 57.891 21.112C58.867 20.952 59.731 20.76 59.971 20.424V21.944C59.971 23.416 58.867 24.296 57.203 24.296ZM66.4316 25.208C68.4156 25.208 69.8236 23.848 69.9356 22.088H68.8476C68.7836 23.08 68.1436 24.312 66.4316 24.312C64.4316 24.312 63.6156 22.6 63.6156 20.92C63.6156 19.256 64.4316 17.56 66.4316 17.56C68.1276 17.56 68.7836 18.792 68.8476 19.704H69.9356C69.7596 17.976 68.4156 16.648 66.4316 16.648C64.0956 16.648 62.5276 18.376 62.5276 20.92C62.5276 23.48 64.0956 25.208 66.4316 25.208ZM78.103 25L74.487 19.832L77.703 16.84H76.423L72.375 20.68V13.56H71.335V25H72.375V21.8L73.783 20.488L76.871 25H78.103ZM85.221 16.84H83.573V14.12H82.533V16.84H81.333V17.752H82.533V22.888C82.533 24.664 83.269 25.064 84.453 25.064C84.709 25.064 84.901 25.048 85.221 25V24.12C84.981 24.136 84.853 24.152 84.597 24.152C83.797 24.152 83.573 23.912 83.573 22.904V17.752H85.221V16.84ZM89.8539 25.224C92.3019 25.224 93.7739 23.464 93.7739 20.936C93.7739 18.392 92.3019 16.632 89.8539 16.632C87.4059 16.632 85.9339 18.392 85.9339 20.936C85.9339 23.464 87.4059 25.224 89.8539 25.224ZM89.8539 24.312C87.9499 24.312 87.0219 22.808 87.0219 20.936C87.0219 19.048 87.9499 17.544 89.8539 17.544C91.7579 17.544 92.6859 19.048 92.6859 20.936C92.6859 22.808 91.7579 24.312 89.8539 24.312ZM101.877 16.84H100.229V14.12H99.1893V16.84H97.9893V17.752H99.1893V22.888C99.1893 24.664 99.9253 25.064 101.109 25.064C101.365 25.064 101.557 25.048 101.877 25V24.12C101.637 24.136 101.509 24.152 101.253 24.152C100.453 24.152 100.229 23.912 100.229 22.904V17.752H101.877V16.84ZM106.51 25.224C108.958 25.224 110.43 23.464 110.43 20.936C110.43 18.392 108.958 16.632 106.51 16.632C104.062 16.632 102.59 18.392 102.59 20.936C102.59 23.464 104.062 25.224 106.51 25.224ZM106.51 24.312C104.606 24.312 103.678 22.808 103.678 20.936C103.678 19.048 104.606 17.544 106.51 17.544C108.414 17.544 109.342 19.048 109.342 20.936C109.342 22.808 108.414 24.312 106.51 24.312ZM115.722 16.632C114.298 16.632 113.45 17.368 112.97 18.152H112.938V16.84H111.898V27.832H112.938V23.624H112.97C113.45 24.488 114.298 25.192 115.722 25.192C117.722 25.192 119.322 23.592 119.322 20.92C119.322 18.232 117.722 16.632 115.722 16.632ZM115.61 24.28C114.042 24.28 112.938 22.968 112.938 20.92C112.938 18.856 114.042 17.544 115.61 17.544C117.306 17.544 118.234 19.08 118.234 20.92C118.234 22.744 117.306 24.28 115.61 24.28Z" fill="black"/>
</svg>
