<svg width="173" height="173" viewBox="0 0 173 173" fill="none" xmlns="http://www.w3.org/2000/svg">
<g filter="url(#filter0_b_1883_57)">
<circle cx="86.5" cy="86.5" r="86.5" fill="url(#paint0_linear_1883_57)" fill-opacity="0.24"/>
<circle cx="86.5" cy="86.5" r="86" stroke="url(#paint1_linear_1883_57)"/>
</g>
<path d="M86.5 57L88.058 66.4585C89.4514 74.9181 96.0819 81.5486 104.542 82.942L114 84.5L104.542 86.058C96.0819 87.4514 89.4514 94.0819 88.058 102.542L86.5 112L84.942 102.542C83.5486 94.0819 76.9181 87.4514 68.4585 86.058L59 84.5L68.4585 82.942C76.9181 81.5486 83.5486 74.9181 84.942 66.4585L86.5 57Z" fill="white"/>
<g clip-path="url(#clip0_1883_57)">
<path d="M95.9138 31.2698C98.8009 31.7592 100.755 31.0004 102.407 29.2913L102.46 29.3003L102.731 32.0438L104.744 32.385L106.423 22.4786L97.8676 21.0285L97.4546 23.4654L103.043 24.4127C102.483 27.5602 99.6247 29.3102 96.4992 28.7804C92.0758 28.0306 91.4949 24.0629 92.1009 20.4871C92.7025 16.9377 94.9558 13.4503 99.1408 14.1597C101.949 14.6356 103.499 16.2608 103.598 18.73L106.644 19.2463C106.645 15.5407 104.494 12.4784 99.5938 11.6479C94.1904 10.732 90.0201 14.2759 89.0549 19.9708C88.0851 25.6921 90.4573 30.3449 95.9138 31.2698Z" fill="white"/>
<path d="M118.932 39.7938L120.111 37.5306L110.439 32.4891L113.258 27.0812L121.525 31.39L122.704 29.1268L114.437 24.8179L116.958 19.9818L126.392 24.8991L127.572 22.6359L115.517 16.3526L106.639 33.3864L118.932 39.7938Z" fill="white"/>
<path d="M125.622 46.0514L137.027 33.9113L141.55 38.1603L143.297 36.3002L132.078 25.7604L130.33 27.6205L134.853 31.8696L123.449 44.0097L125.622 46.0514Z" fill="white"/>
<path d="M136.308 61.8613C138.405 66.1887 141.602 67.1172 144.576 65.6759C148.226 63.9064 147.5 60.377 146.73 56.6307C146.208 54.137 145.74 52.1247 147.674 51.1873C149.173 50.4608 150.509 51.1861 151.564 53.3619C152.783 55.8761 152.221 57.6114 150.282 58.9093L151.618 61.6652C154.97 59.7119 155.735 56.1768 153.825 52.2362C152.02 48.5132 149.179 47.0244 146.181 48.4774C142.893 50.0711 143.464 53.4665 144.051 56.5256C144.777 60.0551 145.283 61.8997 143.083 62.966C141.512 63.7277 139.893 63.4675 138.545 60.6873C136.975 57.4478 137.878 55.3082 140.105 53.9899L138.77 51.2339C134.971 53.3139 134.187 57.4856 136.308 61.8613Z" fill="white"/>
<path d="M141.203 76.5509L157.588 73.5584L158.703 79.6633L161.214 79.2048L158.448 64.0614L155.938 64.5199L157.053 70.6248L140.667 73.6174L141.203 76.5509Z" fill="white"/>
<path d="M142.073 82.9439L146.583 84.8223L146.067 92.8385L141.354 94.1237L141.147 97.3409L160.779 91.3887L160.984 88.1983L142.273 79.834L142.073 82.9439ZM158.149 89.5774L158.146 89.631L148.614 92.1677L149.019 85.8674L158.149 89.5774Z" fill="white"/>
<path d="M139.54 100.945L146.536 103.653L144.756 108.25C143.063 112.622 137.475 108.505 136.416 109.015L135.275 111.963L135.45 112.031C136.127 111.172 142.582 115.424 144.962 111.576L145.012 111.595C144.698 113.743 145.815 115.756 148.089 116.636C151.387 117.912 154.058 116.504 155.586 112.557L158.468 105.111L140.604 98.1962L139.54 100.945ZM148.909 104.571L155.03 106.941L153.425 111.088C152.361 113.837 150.886 114.53 148.962 113.785C146.914 112.992 146.346 111.192 147.323 108.669L148.909 104.571Z" fill="white"/>
<path d="M129.965 119.094L143.283 129.097L139.556 134.06L141.597 135.592L150.842 123.284L148.801 121.751L145.074 126.713L131.756 116.71L129.965 119.094Z" fill="white"/>
<path d="M114.063 133.2L115.595 135.241L124.321 128.697L127.98 133.576L120.522 139.169L122.053 141.211L129.511 135.617L132.783 139.98L124.272 146.364L125.803 148.405L136.679 140.249L125.153 124.882L114.063 133.2Z" fill="white"/>
<path d="M105.649 136.574C100.644 138.374 98.8144 142.657 100.904 148.471C102.994 154.286 107.191 156.432 112.197 154.633L119.074 152.161L112.577 134.084L105.649 136.574ZM110.659 137.486L115.43 150.759L111.46 152.185C107.264 153.694 105.041 150.924 103.787 147.436C102.533 143.947 102.493 140.421 106.69 138.912L110.659 137.486Z" fill="white"/>
<path d="M77.7186 138.668C74.835 138.159 72.8755 138.904 71.2114 140.601L71.1585 140.592L70.907 137.847L68.8964 137.492L67.1482 147.386L75.6933 148.896L76.1234 146.462L70.5412 145.476C71.1239 142.332 73.9941 140.602 77.1158 141.154C81.5339 141.934 82.0871 145.906 81.4561 149.477C80.8297 153.023 78.5522 156.494 74.3722 155.756C71.5679 155.26 70.0291 153.624 69.9471 151.154L66.9047 150.617C66.8775 154.322 69.0074 157.399 73.9016 158.264C79.2986 159.218 83.4935 155.703 84.4985 150.015C85.5081 144.301 83.1685 139.631 77.7186 138.668Z" fill="white"/>
<path d="M54.838 129.901L53.6385 132.147L63.237 137.273L60.3707 142.64L52.1671 138.258L50.9675 140.504L59.1711 144.886L56.6079 149.685L47.2459 144.685L46.0463 146.931L58.0089 153.32L67.0371 136.416L54.838 129.901Z" fill="white"/>
<path d="M48.1082 123.678L36.6194 135.738L32.126 131.458L30.3656 133.306L41.5116 143.923L43.272 142.076L38.7786 137.795L50.2674 125.735L48.1082 123.678Z" fill="white"/>
<path d="M37.5242 107.794C35.4577 103.451 32.2677 102.5 29.2839 103.92C25.6209 105.663 26.3212 109.198 27.0653 112.95C27.5695 115.447 28.023 117.463 26.0823 118.386C24.5783 119.102 23.2467 118.367 22.2077 116.184C21.007 113.661 21.5815 111.93 23.5292 110.646L22.2131 107.88C18.8468 109.809 18.0571 113.339 19.9389 117.293C21.7168 121.029 24.5474 122.538 27.5555 121.107C30.8546 119.537 30.3079 116.137 29.7427 113.074C29.0424 109.539 28.5496 107.691 30.7571 106.641C32.3339 105.89 33.9509 106.162 35.2786 108.952C36.8255 112.202 35.9068 114.335 33.6703 115.638L34.9864 118.403C38.7997 116.35 39.6138 112.184 37.5242 107.794Z" fill="white"/>
<path d="M32.8971 93.0945L16.5737 95.9261L15.5187 89.8444L13.0175 90.2782L15.6345 105.364L18.1357 104.93L17.0806 98.8486L33.4041 96.017L32.8971 93.0945Z" fill="white"/>
<path d="M31.9037 86.6718L27.4074 84.762L27.9789 76.7496L32.7008 75.4973L32.9302 72.2816L13.2578 78.0966L13.0304 81.2855L31.682 89.7803L31.9037 86.6718ZM15.8745 79.9262L15.8784 79.8726L25.4275 77.4025L24.9783 83.6999L15.8745 79.9262Z" fill="white"/>
<path d="M34.4986 68.6473L27.4964 65.8989L29.3025 61.2975C31.0202 56.9211 36.6048 61.0755 37.6691 60.5697L38.8273 57.6188L38.6523 57.5501C37.9694 58.4076 31.5159 54.1141 29.1112 57.9611L29.0612 57.9415C29.3865 55.7892 28.2758 53.7659 26.0001 52.8727C22.699 51.577 20.0141 52.9764 18.4632 56.9276L15.5382 64.38L33.4189 71.3982L34.4986 68.6473ZM25.1206 64.9665L18.9937 62.5616L20.6231 58.4103C21.7028 55.6594 23.185 54.9713 25.1106 55.7271C27.1613 56.532 27.7218 58.3393 26.7304 60.8651L25.1206 64.9665Z" fill="white"/>
<path d="M44.1664 50.4657L30.8412 40.3052L34.6268 35.3405L32.585 33.7836L23.1947 46.0987L25.2365 47.6556L29.0221 42.6908L42.3473 52.8513L44.1664 50.4657Z" fill="white"/>
<path d="M60.1886 36.5299L58.6573 34.4881L49.9314 41.0325L46.2724 36.1538L53.7302 30.5604L52.1989 28.5186L44.741 34.112L41.4688 29.7491L49.9798 23.3659L48.4485 21.3241L37.5734 29.4804L49.0986 44.8474L60.1886 36.5299Z" fill="white"/>
<path d="M68.6917 33.2956C73.7102 31.5323 75.57 27.2624 73.5217 21.4327C71.4733 15.6031 67.2918 13.4275 62.2732 15.1909L55.379 17.6133L61.7468 35.7359L68.6917 33.2956ZM63.6888 32.3483L59.0132 19.0415L62.9925 17.6433C67.2 16.1649 69.4032 18.9502 70.6322 22.448C71.8612 25.9458 71.8756 29.4717 67.6682 30.9501L63.6888 32.3483Z" fill="white"/>
<circle cx="81.5" cy="19.5" r="1.5" fill="white"/>
<circle cx="92.5" cy="150.5" r="1.5" fill="white"/>
</g>
<defs>
<filter id="filter0_b_1883_57" x="-40" y="-40" width="253" height="253" filterUnits="userSpaceOnUse" color-interpolation-filters="sRGB">
<feFlood flood-opacity="0" result="BackgroundImageFix"/>
<feGaussianBlur in="BackgroundImageFix" stdDeviation="20"/>
<feComposite in2="SourceAlpha" operator="in" result="effect1_backgroundBlur_1883_57"/>
<feBlend mode="normal" in="SourceGraphic" in2="effect1_backgroundBlur_1883_57" result="shape"/>
</filter>
<linearGradient id="paint0_linear_1883_57" x1="86.5" y1="0" x2="86.5" y2="173" gradientUnits="userSpaceOnUse">
<stop stop-color="white"/>
<stop offset="1" stop-color="white" stop-opacity="0.23"/>
</linearGradient>
<linearGradient id="paint1_linear_1883_57" x1="86.5" y1="0" x2="86.5" y2="173" gradientUnits="userSpaceOnUse">
<stop stop-color="white" stop-opacity="0.56"/>
<stop offset="1" stop-color="white" stop-opacity="0.13"/>
</linearGradient>
<clipPath id="clip0_1883_57">
<rect width="154" height="154" fill="white" transform="translate(10 8)"/>
</clipPath>
</defs>
</svg>
