<svg width="24" height="24" viewBox="0 0 24 24" fill="none" xmlns="http://www.w3.org/2000/svg">
<path d="M6.0039 7C6.0039 7.55 6.4539 8 7.0039 8H14.5939L5.7139 16.88C5.62131 16.9726 5.54787 17.0825 5.49777 17.2035C5.44766 17.3244 5.42188 17.4541 5.42188 17.585C5.42187 17.7159 5.44766 17.8456 5.49777 17.9665C5.54787 18.0875 5.62131 18.1974 5.7139 18.29C5.80648 18.3826 5.91639 18.456 6.03735 18.5061C6.15832 18.5562 6.28797 18.582 6.4189 18.582C6.54983 18.582 6.67947 18.5562 6.80044 18.5061C6.9214 18.456 7.03131 18.3826 7.1239 18.29L16.0039 9.41V17C16.0039 17.55 16.4539 18 17.0039 18C17.5539 18 18.0039 17.55 18.0039 17V7C18.0039 6.45 17.5539 6 17.0039 6H7.0039C6.4539 6 6.0039 6.45 6.0039 7Z" fill="url(#paint0_linear_1882_84)"/>
<defs>
<linearGradient id="paint0_linear_1882_84" x1="11.7129" y1="6" x2="11.7129" y2="18.582" gradientUnits="userSpaceOnUse">
<stop stop-color="#92B1B1"/>
<stop offset="1" stop-color="#709999"/>
</linearGradient>
</defs>
</svg>
