<svg width="49" height="48" viewBox="0 0 49 48" fill="none" xmlns="http://www.w3.org/2000/svg">
<rect x="0.96875" width="48" height="48" rx="12" fill="#759191" fill-opacity="0.18"/>
<path d="M18.9726 19C18.9726 19.55 19.4226 20 19.9726 20H27.5626L18.6826 28.88C18.5901 28.9726 18.5166 29.0825 18.4665 29.2035C18.4164 29.3244 18.3906 29.4541 18.3906 29.585C18.3906 29.7159 18.4164 29.8456 18.4665 29.9665C18.5166 30.0875 18.5901 30.1974 18.6826 30.29C18.7752 30.3826 18.8851 30.456 19.0061 30.5061C19.1271 30.5562 19.2567 30.582 19.3876 30.582C19.5186 30.582 19.6482 30.5562 19.7692 30.5061C19.8902 30.456 20.0001 30.3826 20.0926 30.29L28.9726 21.41V29C28.9726 29.55 29.4226 30 29.9726 30C30.5226 30 30.9726 29.55 30.9726 29V19C30.9726 18.45 30.5226 18 29.9726 18H19.9726C19.4226 18 18.9726 18.45 18.9726 19Z" fill="#759191"/>
</svg>
