<svg width="159" height="40" viewBox="0 0 159 40" fill="none" xmlns="http://www.w3.org/2000/svg">
<path fill-rule="evenodd" clip-rule="evenodd" d="M159 12.5C159 5.87258 153.627 0.5 147 0.5H21.55C16.6268 0.5 12.6358 4.49106 12.6358 9.41428V12.0107C12.6358 15.5 9.80715 18.3286 6.31788 18.3286H2.22857C0.997765 18.3286 0 19.3263 0 20.5571C0 21.7879 0.997763 22.7857 2.22857 22.7857H6.31788C9.80715 22.7857 12.6358 25.6143 12.6358 29.1036V31.1429C12.6358 35.7584 16.3774 39.5 20.9929 39.5H147C153.627 39.5 159 34.1274 159 27.5V12.5Z" fill="white"/>
<path d="M41.384 25V13.56H40.216V25H41.384ZM47.3164 16.648C45.8604 16.648 44.9804 17.336 44.5164 18.008H44.4844V16.84H43.4444V25H44.4844V19.848C44.4844 18.648 45.5084 17.56 47.0604 17.56C48.4684 17.56 48.9484 18.456 48.9484 19.496V25H49.9884V19.272C49.9884 17.464 48.7724 16.648 47.3164 16.648ZM55.6746 16.632C54.2506 16.632 53.4026 17.368 52.9226 18.152H52.8906V16.84H51.8506V27.832H52.8906V23.624H52.9226C53.4026 24.488 54.2506 25.192 55.6746 25.192C57.6746 25.192 59.2746 23.592 59.2746 20.92C59.2746 18.232 57.6746 16.632 55.6746 16.632ZM55.5626 24.28C53.9946 24.28 52.8906 22.968 52.8906 20.92C52.8906 18.856 53.9946 17.544 55.5626 17.544C57.2586 17.544 58.1866 19.08 58.1866 20.92C58.1866 22.744 57.2586 24.28 55.5626 24.28ZM64.2289 25.224C66.6769 25.224 68.1489 23.464 68.1489 20.936C68.1489 18.392 66.6769 16.632 64.2289 16.632C61.7809 16.632 60.3089 18.392 60.3089 20.936C60.3089 23.464 61.7809 25.224 64.2289 25.224ZM64.2289 24.312C62.3249 24.312 61.3969 22.808 61.3969 20.936C61.3969 19.048 62.3249 17.544 64.2289 17.544C66.1329 17.544 67.0609 19.048 67.0609 20.936C67.0609 22.808 66.1329 24.312 64.2289 24.312ZM74.5403 25V19.656H79.8843V18.632H74.5403V14.584H81.0203V13.56H73.3723V25H74.5403ZM83.3784 15.208V13.864H82.0344V15.208H83.3784ZM83.2344 25V16.84H82.1944V25H83.2344ZM89.0195 16.648C87.5635 16.648 86.6835 17.336 86.2195 18.008H86.1875V16.84H85.1475V25H86.1875V19.848C86.1875 18.648 87.2115 17.56 88.7635 17.56C90.1715 17.56 90.6515 18.456 90.6515 19.496V25H91.6915V19.272C91.6915 17.464 90.4755 16.648 89.0195 16.648ZM95.7938 25.208C97.1218 25.208 98.0978 24.696 98.6578 23.768H98.6898C98.7538 24.792 99.1538 25.064 99.8418 25.064C100.034 25.064 100.21 25.032 100.386 25V24.248C100.29 24.264 100.226 24.264 100.162 24.264C99.7938 24.264 99.6978 23.96 99.6978 23.304V19.224C99.6978 17.272 98.3698 16.632 96.8658 16.632C94.4978 16.632 93.5858 17.864 93.5058 19.304H94.6098C94.6898 18.104 95.2498 17.544 96.8338 17.544C98.1458 17.544 98.6898 18.104 98.6898 18.936C98.6898 19.912 97.8258 20.008 96.4818 20.248C94.3698 20.616 93.1217 21.176 93.1217 22.936C93.1217 24.296 94.1618 25.208 95.7938 25.208ZM95.9218 24.296C94.7378 24.296 94.2098 23.784 94.2098 22.84C94.2098 21.8 95.0258 21.4 96.6098 21.112C97.5858 20.952 98.4498 20.76 98.6898 20.424V21.944C98.6898 23.416 97.5858 24.296 95.9218 24.296ZM105.645 16.648C104.189 16.648 103.309 17.336 102.845 18.008H102.812V16.84H101.773V25H102.812V19.848C102.812 18.648 103.837 17.56 105.389 17.56C106.797 17.56 107.277 18.456 107.277 19.496V25H108.317V19.272C108.317 17.464 107.101 16.648 105.645 16.648ZM113.635 25.208C115.619 25.208 117.027 23.848 117.139 22.088H116.051C115.987 23.08 115.347 24.312 113.635 24.312C111.635 24.312 110.819 22.6 110.819 20.92C110.819 19.256 111.635 17.56 113.635 17.56C115.331 17.56 115.987 18.792 116.051 19.704H117.139C116.963 17.976 115.619 16.648 113.635 16.648C111.299 16.648 109.731 18.376 109.731 20.92C109.731 23.48 111.299 25.208 113.635 25.208ZM125.674 20.552C125.674 18.28 124.346 16.632 121.994 16.632C119.642 16.632 118.106 18.312 118.106 20.92C118.106 23.4 119.498 25.224 121.994 25.224C124.042 25.224 125.162 23.992 125.562 22.504H124.506C124.346 23.176 123.69 24.328 122.01 24.328C120.09 24.328 119.21 22.776 119.194 21.128H125.658C125.674 21 125.674 20.776 125.674 20.552ZM119.194 20.216C119.274 18.696 120.362 17.528 121.946 17.528C123.626 17.528 124.57 18.76 124.57 20.216H119.194Z" fill="black"/>
</svg>
