<svg width="56" height="59" viewBox="0 0 56 59" fill="none" xmlns="http://www.w3.org/2000/svg">
<path opacity="0.1" d="M0 16C0 7.16344 7.16344 0 16 0H40C48.8366 0 56 7.16344 56 16V40C56 48.8366 48.8366 56 40 56H16C7.16344 56 0 48.8366 0 40V16Z" fill="white"/>
<g clip-path="url(#clip0_1879_92)" filter="url(#filter0_f_1879_92)">
<path d="M26.8246 26.7472C27.2011 26.7028 27.5806 26.8023 27.8869 27.0257C28.1933 27.2491 28.4039 27.58 28.4768 27.9521L28.4966 28.0843L28.5005 28.1666V33.7083C28.5005 33.9022 28.5717 34.0893 28.7006 34.2342C28.8294 34.3791 29.007 34.4717 29.1996 34.4944L29.2922 34.5H34.6755C35.0954 34.5 35.4982 34.6668 35.7951 34.9637C36.092 35.2606 36.2589 35.6634 36.2589 36.0833C36.2588 36.1435 36.2519 36.2035 36.2383 36.2622C35.9215 37.6291 35.247 38.8873 34.284 39.9079C33.321 40.9284 32.1041 41.6747 30.7578 42.0703C29.4116 42.4659 27.9844 42.4965 26.6224 42.1591C25.2604 41.8217 24.0125 41.1283 23.0066 40.15C22.0007 39.1718 21.2729 37.9437 20.8976 36.5916C20.5224 35.2395 20.5133 33.812 20.8713 32.4553C21.2292 31.0985 21.9413 29.8613 22.9347 28.8702C23.928 27.8792 25.1669 27.17 26.5245 26.8152L26.7383 26.7622L26.8254 26.7464L26.8246 26.7472Z" fill="url(#paint0_linear_1879_92)"/>
<path d="M30.0859 27.7707V32.1249C30.0859 32.3349 30.1693 32.5362 30.3178 32.6847C30.4663 32.8332 30.6676 32.9166 30.8776 32.9166H35.2318C35.3583 32.9165 35.483 32.8862 35.5954 32.828C35.7078 32.7699 35.8046 32.6856 35.8777 32.5823C35.9508 32.4791 35.9981 32.3598 36.0156 32.2344C36.0331 32.1091 36.0203 31.9814 35.9783 31.8621C35.5851 30.7453 34.9465 29.7309 34.1093 28.8937C33.2722 28.0564 32.2579 27.4176 31.1412 27.0242C31.0218 26.982 30.894 26.9691 30.7686 26.9865C30.6432 27.004 30.5238 27.0512 30.4204 27.1244C30.317 27.1975 30.2327 27.2944 30.1745 27.4068C30.1163 27.5193 30.0859 27.6441 30.0859 27.7707Z" fill="url(#paint1_linear_1879_92)"/>
</g>
<g clip-path="url(#clip1_1879_92)">
<path d="M25.1786 14.9427C25.8128 14.868 26.4519 15.0355 26.9678 15.4118C27.4838 15.7881 27.8386 16.3453 27.9613 16.972L27.9946 17.1947L28.0013 17.3334V26.6667C28.0013 26.9933 28.1212 27.3085 28.3382 27.5525C28.5553 27.7966 28.8543 27.9525 29.1786 27.9907L29.3346 28H38.4013C39.1085 28 39.7868 28.281 40.2869 28.7811C40.787 29.2812 41.068 29.9595 41.068 30.6667C41.0679 30.7681 41.0563 30.8692 41.0333 30.968C40.4997 33.2703 39.3638 35.3893 37.7419 37.1081C36.12 38.827 34.0705 40.0839 31.8031 40.7501C29.5357 41.4163 27.132 41.4679 24.8381 40.8996C22.5442 40.3314 20.4425 39.1636 18.7484 37.516C17.0542 35.8683 15.8284 33.8 15.1965 31.5228C14.5645 29.2457 14.5492 26.8414 15.152 24.5564C15.7549 22.2713 16.9542 20.1875 18.6272 18.5184C20.3002 16.8493 22.3868 15.6549 24.6733 15.0574L25.0333 14.968L25.18 14.9414L25.1786 14.9427Z" fill="url(#paint2_linear_1879_92)"/>
<path d="M30.6641 16.6664V23.9998C30.6641 24.3534 30.8045 24.6925 31.0546 24.9426C31.3046 25.1926 31.6438 25.3331 31.9974 25.3331H39.3307C39.5438 25.333 39.7538 25.2819 39.9431 25.184C40.1324 25.086 40.2954 24.9441 40.4186 24.7702C40.5417 24.5963 40.6214 24.3953 40.6509 24.1843C40.6804 23.9732 40.6588 23.7581 40.5881 23.5571C39.9259 21.6762 38.8502 19.9678 37.4403 18.5577C36.0304 17.1476 34.3222 16.0716 32.4414 15.4091C32.2403 15.3381 32.0251 15.3163 31.8138 15.3457C31.6026 15.3751 31.4015 15.4547 31.2274 15.5778C31.0533 15.701 30.9112 15.8642 30.8132 16.0536C30.7152 16.243 30.664 16.4532 30.6641 16.6664Z" fill="url(#paint3_linear_1879_92)"/>
</g>
<defs>
<filter id="filter0_f_1879_92" x="3" y="9" width="51" height="51" filterUnits="userSpaceOnUse" color-interpolation-filters="sRGB">
<feFlood flood-opacity="0" result="BackgroundImageFix"/>
<feBlend mode="normal" in="SourceGraphic" in2="BackgroundImageFix" result="shape"/>
<feGaussianBlur stdDeviation="8" result="effect1_foregroundBlur_1879_92"/>
</filter>
<linearGradient id="paint0_linear_1879_92" x1="28.4341" y1="26.7368" x2="28.4341" y2="42.3914" gradientUnits="userSpaceOnUse">
<stop stop-color="#91B1B1"/>
<stop offset="1" stop-color="#719A9A"/>
</linearGradient>
<linearGradient id="paint1_linear_1879_92" x1="33.0546" y1="26.979" x2="33.0546" y2="32.9166" gradientUnits="userSpaceOnUse">
<stop stop-color="#91B1B1"/>
<stop offset="1" stop-color="#719A9A"/>
</linearGradient>
<linearGradient id="paint2_linear_1879_92" x1="27.8894" y1="14.9253" x2="27.8894" y2="41.2909" gradientUnits="userSpaceOnUse">
<stop stop-color="#91B1B1"/>
<stop offset="1" stop-color="#719A9A"/>
</linearGradient>
<linearGradient id="paint3_linear_1879_92" x1="35.6639" y1="15.333" x2="35.6639" y2="25.3331" gradientUnits="userSpaceOnUse">
<stop stop-color="#91B1B1"/>
<stop offset="1" stop-color="#719A9A"/>
</linearGradient>
<clipPath id="clip0_1879_92">
<rect width="19" height="19" fill="white" transform="translate(19 25)"/>
</clipPath>
<clipPath id="clip1_1879_92">
<rect width="32" height="32" fill="white" transform="translate(12 12)"/>
</clipPath>
</defs>
</svg>
