<svg width="24" height="24" viewBox="0 0 24 24" fill="none" xmlns="http://www.w3.org/2000/svg">
<path fill-rule="evenodd" clip-rule="evenodd" d="M8.11628 2.92148C8.04906 2.91088 7.98073 2.90927 7.91308 2.91668C6.56748 3.06228 4.51948 3.78868 3.30988 4.44468C3.22999 4.48825 3.15847 4.54568 3.09868 4.61428C2.59628 5.18868 2.14028 6.12468 1.78348 7.01108C1.41548 7.91988 1.11148 8.87988 0.940278 9.57428C0.373878 11.8303 0.0650784 14.5391 0.0234784 17.1087C0.022155 17.2369 0.0529583 17.3634 0.113078 17.4767C0.593078 18.3935 1.62828 19.2431 2.66508 19.8639C3.71308 20.4927 4.93708 20.9887 5.92268 21.0847C6.04077 21.0959 6.15986 21.0797 6.27062 21.0372C6.38138 20.9948 6.4808 20.9272 6.56108 20.8399C6.80748 20.5727 7.22668 19.9487 7.54348 19.4639C7.68748 19.2431 7.82348 19.0319 7.92908 18.8639C8.98828 19.0559 10.3163 19.1679 11.9963 19.1679C13.6731 19.1679 15.0011 19.0559 16.0603 18.8639C16.1659 19.0335 16.3003 19.2431 16.4443 19.4623C16.7611 19.9487 17.1803 20.5727 17.4283 20.8399C17.5086 20.9272 17.608 20.9948 17.7187 21.0372C17.8295 21.0797 17.9486 21.0959 18.0667 21.0847C19.0523 20.9887 20.2747 20.4927 21.3227 19.8639C22.3595 19.2431 23.3947 18.3935 23.8763 17.4767C23.9358 17.3633 23.9661 17.2368 23.9643 17.1087C23.9243 14.5391 23.6139 11.8287 23.0507 9.57268C22.8244 8.70137 22.5416 7.8457 22.2043 7.01108C21.8475 6.12468 21.3915 5.18708 20.8907 4.61428C20.8304 4.54553 20.7583 4.48809 20.6779 4.44468C19.4699 3.78868 17.4219 3.06228 16.0747 2.91668C16.0076 2.90941 15.9398 2.91102 15.8731 2.92148C15.5715 2.97951 15.2887 3.11022 15.0491 3.30228C14.5124 3.73433 14.0784 4.2803 13.7787 4.90068C13.1857 4.85416 12.5911 4.83121 11.9963 4.83188C11.3531 4.83188 10.7579 4.85588 10.2091 4.89908C9.90912 4.27928 9.47519 3.73387 8.93868 3.30228C8.69953 3.11045 8.41726 2.97976 8.11628 2.92148ZM17.6251 18.4607C17.8503 18.8075 18.0812 19.1504 18.3179 19.4895C18.9515 19.3455 19.7595 19.0095 20.5339 18.5455C21.4027 18.0255 22.0923 17.4255 22.4251 16.9183C22.3723 14.5087 22.0747 12.0063 21.5611 9.94548C21.3519 9.14283 21.0911 8.35452 20.7803 7.58548C20.4603 6.78868 20.1163 6.11348 19.8171 5.72628C18.7771 5.18708 17.1371 4.61748 16.0683 4.46228C16.0361 4.48178 16.0051 4.50315 15.9755 4.52628C15.8429 4.63058 15.7217 4.74856 15.6139 4.87828C15.5508 4.95338 15.4905 5.03077 15.4331 5.11028C15.9211 5.19988 16.3563 5.30708 16.7419 5.42548C17.8363 5.76148 18.6251 6.22548 19.0107 6.73908C19.1329 6.90202 19.1854 7.10685 19.1566 7.30849C19.1278 7.51013 19.02 7.69206 18.8571 7.81428C18.7764 7.87479 18.6846 7.91882 18.5869 7.94385C18.4892 7.96888 18.3875 7.97442 18.2877 7.96016C18.086 7.93135 17.9041 7.82363 17.7819 7.66068C17.6875 7.53588 17.2763 7.19668 16.2907 6.89268C15.3387 6.60148 13.9387 6.36788 11.9963 6.36788C10.0539 6.36788 8.65228 6.60148 7.70188 6.89428C6.71628 7.19828 6.30508 7.53428 6.21068 7.66068C6.15017 7.74136 6.07435 7.80934 5.98757 7.86072C5.90079 7.91211 5.80473 7.94589 5.70489 7.96016C5.50325 7.98896 5.29843 7.93649 5.13548 7.81428C5.05479 7.75376 4.98682 7.67795 4.93543 7.59117C4.88405 7.50438 4.85026 7.40833 4.836 7.30849C4.80719 7.10685 4.85967 6.90202 4.98188 6.73908C5.36748 6.22388 6.15628 5.76308 7.25068 5.42708C7.63468 5.30708 8.06988 5.20148 8.55628 5.11188C8.49876 5.0315 8.43791 4.95356 8.37388 4.87828C8.26655 4.74864 8.14589 4.63066 8.01388 4.52628C7.9837 4.5031 7.95218 4.48173 7.91948 4.46228C6.85228 4.61748 5.21228 5.18708 4.17228 5.72628C3.87148 6.11508 3.52908 6.78868 3.20748 7.58548C2.86668 8.43348 2.58348 9.32468 2.42828 9.94548C1.91308 12.0063 1.61548 14.5087 1.56428 16.9183C1.89708 17.4271 2.58508 18.0255 3.45388 18.5471C4.22988 19.0111 5.03628 19.3471 5.67148 19.4895C5.91052 19.1521 6.14152 18.809 6.36428 18.4607C5.10828 18.0143 4.43468 17.4015 3.99628 16.7455C3.94039 16.6614 3.9016 16.5672 3.88213 16.4682C3.86265 16.3691 3.86288 16.2672 3.88279 16.1683C3.90269 16.0693 3.9419 15.9753 3.99816 15.8915C4.05442 15.8077 4.12663 15.7358 4.21068 15.6799C4.29472 15.624 4.38896 15.5852 4.48799 15.5657C4.58703 15.5463 4.68893 15.5465 4.78788 15.5664C4.88683 15.5863 4.98089 15.6255 5.06469 15.6818C5.14849 15.738 5.22039 15.8102 5.27628 15.8943C5.69228 16.5215 6.78668 17.6319 11.9963 17.6319C17.2075 17.6319 18.3003 16.5215 18.7163 15.8943C18.8292 15.7245 19.0048 15.6066 19.2047 15.5664C19.4045 15.5262 19.6121 15.567 19.7819 15.6799C19.9516 15.7928 20.0696 15.9684 20.1098 16.1683C20.15 16.3681 20.1092 16.5757 19.9963 16.7455C19.5579 17.4015 18.8827 18.0159 17.6251 18.4607ZM6.52428 11.2191C6.91468 10.7999 7.44428 10.5631 7.99628 10.5599C8.54828 10.5631 9.07788 10.7999 9.46828 11.2191C9.85708 11.6399 10.0763 12.2079 10.0763 12.7999C10.0763 13.3919 9.85708 13.9599 9.46828 14.3807C9.07788 14.7999 8.54828 15.0367 7.99628 15.0399C7.71881 15.0369 7.44491 14.9769 7.19166 14.8635C6.93841 14.7501 6.71123 14.5857 6.52428 14.3807C6.13005 13.9489 5.91296 13.3845 5.91628 12.7999C5.91628 12.2079 6.13548 11.6399 6.52428 11.2191ZM15.9963 10.5599C15.4443 10.5631 14.9147 10.7999 14.5243 11.2191C14.1355 11.6399 13.9163 12.2079 13.9163 12.7999C13.9163 13.3919 14.1355 13.9599 14.5243 14.3807C14.9147 14.7999 15.4443 15.0367 15.9963 15.0399C16.5483 15.0367 17.0779 14.7999 17.4683 14.3807C17.8571 13.9599 18.0763 13.3919 18.0763 12.7999C18.0763 12.2079 17.8571 11.6399 17.4683 11.2191C17.2813 11.014 17.0541 10.8497 16.8009 10.7363C16.5476 10.6228 16.2737 10.5628 15.9963 10.5599Z" fill="#393939"/>
</svg>
